<svg width="20" height="20" viewBox="0 0 20 20" fill="none" xmlns="http://www.w3.org/2000/svg">
<g id="home">
<path id="Vector (Stroke)" fill-rule="evenodd" clip-rule="evenodd" d="M9.48822 1.00891C9.78915 0.774861 10.2105 0.774861 10.5115 1.00891L18.0115 6.84225C18.2144 7.00013 18.3332 7.24288 18.3332 7.50004V16.6667C18.3332 17.3297 18.0698 17.9656 17.6009 18.4345C17.1321 18.9033 16.4962 19.1667 15.8332 19.1667H4.1665C3.50346 19.1667 2.86758 18.9033 2.39874 18.4345C1.9299 17.9656 1.6665 17.3297 1.6665 16.6667V7.50004C1.6665 7.24288 1.78523 7.00013 1.98822 6.84225L9.48822 1.00891ZM3.33317 7.90761V16.6667C3.33317 16.8877 3.42097 17.0997 3.57725 17.256C3.73353 17.4122 3.94549 17.5 4.1665 17.5H15.8332C16.0542 17.5 16.2661 17.4122 16.4224 17.256C16.5787 17.0997 16.6665 16.8877 16.6665 16.6667V7.90761L9.99984 2.72242L3.33317 7.90761Z" fill="#33495D"/>
<path id="Vector (Stroke)_2" fill-rule="evenodd" clip-rule="evenodd" d="M6.6665 9.99996C6.6665 9.53972 7.0396 9.16663 7.49984 9.16663H12.4998C12.9601 9.16663 13.3332 9.53972 13.3332 9.99996V18.3333C13.3332 18.7935 12.9601 19.1666 12.4998 19.1666C12.0396 19.1666 11.6665 18.7935 11.6665 18.3333V10.8333H8.33317V18.3333C8.33317 18.7935 7.96007 19.1666 7.49984 19.1666C7.0396 19.1666 6.6665 18.7935 6.6665 18.3333V9.99996Z" fill="#33495D"/>
</g>
</svg>
